<?xml version="1.0" encoding="UTF-8" standalone="no"?>
<!DOCTYPE svg PUBLIC "-//W3C//DTD SVG 1.1//EN"
 "http://www.w3.org/Graphics/SVG/1.1/DTD/svg11.dtd">
<!-- Generated by graphviz version 8.0.5 (20230430.1635)
 -->
<!-- Title: CurrentGSF Pages: 1 -->
<svg width="1284pt" height="2061pt"
 viewBox="0.00 0.00 1283.97 2061.21" xmlns="http://www.w3.org/2000/svg" xmlns:xlink="http://www.w3.org/1999/xlink">
<g id="graph0" class="graph" transform="scale(1 1) rotate(0) translate(18 2043.21)">
<title>CurrentGSF</title>
<polygon fill="white" stroke="none" points="-18,18 -18,-2043.21 1265.97,-2043.21 1265.97,18 -18,18"/>
<text text-anchor="middle" x="623.99" y="-2007.91" font-family="Helvetica,sans-Serif" font-size="14.00">CEPCSW RecGsfTracking — Current Implemented GSF Algorithm</text>
<g id="clust1" class="cluster">
<title>cluster_forward</title>
<path fill="white" stroke="#7aa6c2" stroke-width="1.2" d="M60.73,-302.94C60.73,-302.94 544.74,-302.94 544.74,-302.94 550.74,-302.94 556.74,-308.94 556.74,-314.94 556.74,-314.94 556.74,-1481.97 556.74,-1481.97 556.74,-1487.97 550.74,-1493.97 544.74,-1493.97 544.74,-1493.97 60.74,-1493.97 60.74,-1493.97 54.74,-1493.97 48.73,-1487.97 48.73,-1481.97 48.73,-1481.97 48.73,-314.94 48.73,-314.94 48.73,-308.94 54.73,-302.94 60.73,-302.94"/>
<text text-anchor="middle" x="302.74" y="-1476.67" font-family="Helvetica,sans-Serif" font-size="14.00">Forward multi&#45;component filter — hits 1 … N−1</text>
</g>
<g id="clust2" class="cluster">
<title>cluster_reverse</title>
<path fill="white" stroke="#9271b5" stroke-width="1.2" d="M576.74,-210.76C576.74,-210.76 959.74,-210.76 959.74,-210.76 965.74,-210.76 971.74,-216.76 971.74,-222.76 971.74,-222.76 971.74,-687.98 971.74,-687.98 971.74,-693.98 965.74,-699.98 959.74,-699.98 959.74,-699.98 576.74,-699.98 576.74,-699.98 570.74,-699.98 564.74,-693.98 564.74,-687.98 564.74,-687.98 564.74,-222.75 564.74,-222.75 564.74,-216.75 570.74,-210.76 576.74,-210.76"/>
<text text-anchor="middle" x="768.24" y="-682.68" font-family="Helvetica,sans-Serif" font-size="14.00">Optional reverse multi&#45;component filter — hits N−2 … 0</text>
</g>
<g id="clust3" class="cluster">
<title>cluster_legend</title>
<path fill="white" stroke="#c3ccd3" stroke-dasharray="5,2" d="M551.74,-1740.58C551.74,-1740.58 745.74,-1740.58 745.74,-1740.58 751.74,-1740.58 757.74,-1746.58 757.74,-1752.58 757.74,-1752.58 757.74,-1979.96 757.74,-1979.96 757.74,-1985.96 751.74,-1991.96 745.74,-1991.96 745.74,-1991.96 551.74,-1991.96 551.74,-1991.96 545.74,-1991.96 539.74,-1985.96 539.74,-1979.96 539.74,-1979.96 539.74,-1752.58 539.74,-1752.58 539.74,-1746.58 545.74,-1740.58 551.74,-1740.58"/>
<text text-anchor="middle" x="648.74" y="-1974.66" font-family="Helvetica,sans-Serif" font-size="14.00">Status key</text>
</g>
<!-- input -->
<g id="node1" class="node">
<title>input</title>
<path fill="#dceafa" stroke="#40566f" d="M181.47,-1959.94C181.47,-1959.94 12,-1959.94 12,-1959.94 6,-1959.94 0,-1953.94 0,-1947.94 0,-1947.94 0,-1933.48 0,-1933.48 0,-1927.48 6,-1921.48 12,-1921.48 12,-1921.48 181.47,-1921.48 181.47,-1921.48 187.47,-1921.48 193.47,-1927.48 193.47,-1933.48 193.47,-1933.48 193.47,-1947.94 193.47,-1947.94 193.47,-1953.94 187.47,-1959.94 181.47,-1959.94"/>
<text text-anchor="middle" x="96.73" y="-1943.96" font-family="Helvetica,sans-Serif" font-size="10.00">CompleteTracks</text>
<text text-anchor="middle" x="96.73" y="-1931.21" font-family="Helvetica,sans-Serif" font-size="10.00">LCIO track + associated tracker hits</text>
</g>
<!-- select -->
<g id="node2" class="node">
<title>select</title>
<path fill="#f4f7fa" stroke="#40566f" d="M85.14,-1881.38C85.14,-1881.38 12.36,-1861.88 12.36,-1861.88 6.56,-1860.33 6.56,-1857.22 12.36,-1855.67 12.36,-1855.67 85.14,-1836.17 85.14,-1836.17 90.94,-1834.62 102.53,-1834.62 108.33,-1836.17 108.33,-1836.17 181.11,-1855.67 181.11,-1855.67 186.91,-1857.22 186.91,-1860.33 181.11,-1861.88 181.11,-1861.88 108.33,-1881.38 108.33,-1881.38 102.53,-1882.93 90.94,-1882.93 85.14,-1881.38"/>
<text text-anchor="middle" x="96.73" y="-1855.65" font-family="Helvetica,sans-Serif" font-size="10.00">Event selected?</text>
</g>
<!-- input&#45;&gt;select -->
<g id="edge22" class="edge">
<title>input&#45;&gt;select</title>
<path fill="none" stroke="#526777" d="M96.73,-1921.17C96.73,-1912.74 96.73,-1902.5 96.73,-1892.82"/>
<polygon fill="#526777" stroke="#526777" points="99.26,-1893.08 96.73,-1885.88 94.22,-1893.08 99.26,-1893.08"/>
</g>
<!-- empty -->
<g id="node3" class="node">
<title>empty</title>
<path fill="#f4f7fa" stroke="#40566f" d="M135.22,-1785.81C135.22,-1785.81 18.25,-1785.81 18.25,-1785.81 12.25,-1785.81 6.25,-1779.81 6.25,-1773.81 6.25,-1773.81 6.25,-1759.35 6.25,-1759.35 6.25,-1753.35 12.25,-1747.35 18.25,-1747.35 18.25,-1747.35 135.22,-1747.35 135.22,-1747.35 141.22,-1747.35 147.22,-1753.35 147.22,-1759.35 147.22,-1759.35 147.22,-1773.81 147.22,-1773.81 147.22,-1779.81 141.22,-1785.81 135.22,-1785.81"/>
<text text-anchor="middle" x="76.73" y="-1769.83" font-family="Helvetica,sans-Serif" font-size="10.00">Publish empty GSFTracks</text>
<text text-anchor="middle" x="76.73" y="-1757.08" font-family="Helvetica,sans-Serif" font-size="10.00">for skipped event</text>
</g>
<!-- select&#45;&gt;empty -->
<g id="edge23" class="edge">
<title>select&#45;&gt;empty</title>
<path fill="none" stroke="#526777" d="M91.48,-1834.08C88.76,-1821.83 85.44,-1806.85 82.64,-1794.21"/>
<polygon fill="#526777" stroke="#526777" points="84.9,-1793.77 80.88,-1787.29 79.98,-1794.86 84.9,-1793.77"/>
<text text-anchor="middle" x="92.36" y="-1806.51" font-family="Helvetica,sans-Serif" font-size="9.00">no</text>
</g>
<!-- seed -->
<g id="node4" class="node">
<title>seed</title>
<path fill="#edf3f8" stroke="#40566f" d="M346.47,-1785.81C346.47,-1785.81 183,-1785.81 183,-1785.81 177,-1785.81 171,-1779.81 171,-1773.81 171,-1773.81 171,-1759.35 171,-1759.35 171,-1753.35 177,-1747.35 183,-1747.35 183,-1747.35 346.47,-1747.35 346.47,-1747.35 352.47,-1747.35 358.47,-1753.35 358.47,-1759.35 358.47,-1759.35 358.47,-1773.81 358.47,-1773.81 358.47,-1779.81 352.47,-1785.81 346.47,-1785.81"/>
<text text-anchor="middle" x="264.74" y="-1769.83" font-family="Helvetica,sans-Serif" font-size="10.00">Extract LCIO AtIP seed</text>
<text text-anchor="middle" x="264.74" y="-1757.08" font-family="Helvetica,sans-Serif" font-size="10.00">charge and kappa seed covariance</text>
</g>
<!-- select&#45;&gt;seed -->
<g id="edge24" class="edge">
<title>select&#45;&gt;seed</title>
<path fill="none" stroke="#526777" d="M127.94,-1841.02C154.73,-1826.64 193.58,-1805.78 223.04,-1789.97"/>
<polygon fill="#526777" stroke="#526777" points="223.78,-1791.9 228.93,-1786.27 221.39,-1787.46 223.78,-1791.9"/>
<text text-anchor="middle" x="203.24" y="-1806.51" font-family="Helvetica,sans-Serif" font-size="9.00">yes</text>
</g>
<!-- match -->
<g id="node5" class="node">
<title>match</title>
<path fill="#edf3f8" stroke="#40566f" d="M365.22,-1710.35C365.22,-1710.35 164.25,-1710.35 164.25,-1710.35 158.25,-1710.35 152.25,-1704.35 152.25,-1698.35 152.25,-1698.35 152.25,-1683.89 152.25,-1683.89 152.25,-1677.89 158.25,-1671.89 164.25,-1671.89 164.25,-1671.89 365.22,-1671.89 365.22,-1671.89 371.22,-1671.89 377.22,-1677.89 377.22,-1683.89 377.22,-1683.89 377.22,-1698.35 377.22,-1698.35 377.22,-1704.35 371.22,-1710.35 365.22,-1710.35"/>
<text text-anchor="middle" x="264.74" y="-1694.37" font-family="Helvetica,sans-Serif" font-size="10.00">Match hits to KalTest measurement layers</text>
<text text-anchor="middle" x="264.74" y="-1681.62" font-family="Helvetica,sans-Serif" font-size="10.00">convert hits and sort by increasing radius</text>
</g>
<!-- seed&#45;&gt;match -->
<g id="edge25" class="edge">
<title>seed&#45;&gt;match</title>
<path fill="none" stroke="#526777" d="M264.74,-1747.05C264.74,-1738.43 264.74,-1728.04 264.74,-1718.61"/>
<polygon fill="#526777" stroke="#526777" points="267.26,-1718.86 264.74,-1711.66 262.22,-1718.86 267.26,-1718.86"/>
</g>
<!-- audit -->
<g id="node6" class="node">
<title>audit</title>
<path fill="#eef6ef" stroke="#4e7b5c" d="M401.22,-1634.89C401.22,-1634.89 128.25,-1634.89 128.25,-1634.89 122.25,-1634.89 116.25,-1628.89 116.25,-1622.89 116.25,-1622.89 116.25,-1608.43 116.25,-1608.43 116.25,-1602.43 122.25,-1596.43 128.25,-1596.43 128.25,-1596.43 401.22,-1596.43 401.22,-1596.43 407.22,-1596.43 413.22,-1602.43 413.22,-1608.43 413.22,-1608.43 413.22,-1622.89 413.22,-1622.89 413.22,-1628.89 407.22,-1634.89 401.22,-1634.89"/>
<text text-anchor="middle" x="264.74" y="-1618.91" font-family="Helvetica,sans-Serif" font-size="10.00">Optional navigation audit</text>
<text text-anchor="middle" x="264.74" y="-1606.16" font-family="Helvetica,sans-Serif" font-size="10.00">input order • surface index • repeats • direction changes</text>
</g>
<!-- match&#45;&gt;audit -->
<g id="edge26" class="edge">
<title>match&#45;&gt;audit</title>
<path fill="none" stroke="#526777" d="M264.74,-1671.59C264.74,-1662.97 264.74,-1652.58 264.74,-1643.15"/>
<polygon fill="#526777" stroke="#526777" points="267.26,-1643.4 264.74,-1636.2 262.22,-1643.4 267.26,-1643.4"/>
</g>
<!-- init -->
<g id="node7" class="node">
<title>init</title>
<path fill="#edf3f8" stroke="#40566f" d="M378.72,-1559.43C378.72,-1559.43 150.75,-1559.43 150.75,-1559.43 144.75,-1559.43 138.75,-1553.43 138.75,-1547.43 138.75,-1547.43 138.75,-1532.97 138.75,-1532.97 138.75,-1526.97 144.75,-1520.97 150.75,-1520.97 150.75,-1520.97 378.72,-1520.97 378.72,-1520.97 384.72,-1520.97 390.72,-1526.97 390.72,-1532.97 390.72,-1532.97 390.72,-1547.43 390.72,-1547.43 390.72,-1553.43 384.72,-1559.43 378.72,-1559.43"/>
<text text-anchor="middle" x="264.74" y="-1543.45" font-family="Helvetica,sans-Serif" font-size="10.00">Initialize one component at innermost hit</text>
<text text-anchor="middle" x="264.74" y="-1530.7" font-family="Helvetica,sans-Serif" font-size="10.00">weight = 1; filtered history + continuation state</text>
</g>
<!-- audit&#45;&gt;init -->
<g id="edge27" class="edge">
<title>audit&#45;&gt;init</title>
<path fill="none" stroke="#526777" d="M264.74,-1596.13C264.74,-1587.51 264.74,-1577.12 264.74,-1567.69"/>
<polygon fill="#526777" stroke="#526777" points="267.26,-1567.94 264.74,-1560.74 262.22,-1567.94 267.26,-1567.94"/>
</g>
<!-- fbegin -->
<g id="node8" class="node">
<title>fbegin</title>
<ellipse fill="#dceafa" stroke="#40566f" cx="264.74" cy="-1442.54" rx="110.29" ry="18.18"/>
<text text-anchor="middle" x="264.74" y="-1439.42" font-family="Helvetica,sans-Serif" font-size="10.00">Next outward measurement</text>
</g>
<!-- init&#45;&gt;fbegin -->
<g id="edge28" class="edge">
<title>init&#45;&gt;fbegin</title>
<path fill="none" stroke="#526777" d="M264.74,-1520.76C264.74,-1506.06 264.74,-1485.31 264.74,-1469.02"/>
<polygon fill="#526777" stroke="#526777" points="267.26,-1469.17 264.74,-1461.97 262.22,-1469.17 267.26,-1469.17"/>
</g>
<!-- fupdate -->
<g id="node9" class="node">
<title>fupdate</title>
<path fill="#dff0e3" stroke="#4e7b5c" d="M338.6,-1387.37C338.6,-1387.37 190.88,-1387.37 190.88,-1387.37 184.88,-1387.37 178.88,-1381.37 178.88,-1375.37 178.88,-1375.37 178.88,-1348.16 178.88,-1348.16 178.88,-1342.16 184.88,-1336.16 190.88,-1336.16 190.88,-1336.16 338.6,-1336.16 338.6,-1336.16 344.6,-1336.16 350.6,-1342.16 350.6,-1348.16 350.6,-1348.16 350.6,-1375.37 350.6,-1375.37 350.6,-1381.37 344.6,-1387.37 338.6,-1387.37"/>
<text text-anchor="middle" x="264.74" y="-1371.39" font-family="Helvetica,sans-Serif" font-size="10.00">For every component:</text>
<text text-anchor="middle" x="264.74" y="-1358.64" font-family="Helvetica,sans-Serif" font-size="10.00">MarlinTrk initialise → addAndFit</text>
<text text-anchor="middle" x="264.74" y="-1345.89" font-family="Helvetica,sans-Serif" font-size="10.00">append exact filtered state</text>
</g>
<!-- fbegin&#45;&gt;fupdate -->
<g id="edge1" class="edge">
<title>fbegin&#45;&gt;fupdate</title>
<path fill="none" stroke="#526777" d="M264.74,-1424.06C264.74,-1415.7 264.74,-1405.41 264.74,-1395.67"/>
<polygon fill="#526777" stroke="#526777" points="267.26,-1395.87 264.74,-1388.67 262.22,-1395.87 267.26,-1395.87"/>
</g>
<!-- flike -->
<g id="node10" class="node">
<title>flike</title>
<path fill="#dff0e3" stroke="#4e7b5c" d="M341.22,-1299.16C341.22,-1299.16 188.25,-1299.16 188.25,-1299.16 182.25,-1299.16 176.25,-1293.16 176.25,-1287.16 176.25,-1287.16 176.25,-1259.95 176.25,-1259.95 176.25,-1253.95 182.25,-1247.95 188.25,-1247.95 188.25,-1247.95 341.22,-1247.95 341.22,-1247.95 347.22,-1247.95 353.22,-1253.95 353.22,-1259.95 353.22,-1259.95 353.22,-1287.16 353.22,-1287.16 353.22,-1293.16 347.22,-1299.16 341.22,-1299.16"/>
<text text-anchor="middle" x="264.74" y="-1283.18" font-family="Helvetica,sans-Serif" font-size="10.00">Posterior log weight</text>
<text text-anchor="middle" x="264.74" y="-1270.43" font-family="Helvetica,sans-Serif" font-size="10.00">log w − ½[Δχ² + log det(S)]</text>
<text text-anchor="middle" x="264.74" y="-1257.68" font-family="Helvetica,sans-Serif" font-size="10.00">reject failed component updates</text>
</g>
<!-- fupdate&#45;&gt;flike -->
<g id="edge2" class="edge">
<title>fupdate&#45;&gt;flike</title>
<path fill="none" stroke="#526777" d="M264.74,-1335.82C264.74,-1326.98 264.74,-1316.88 264.74,-1307.47"/>
<polygon fill="#526777" stroke="#526777" points="267.26,-1307.63 264.74,-1300.43 262.22,-1307.63 267.26,-1307.63"/>
</g>
<!-- faccept -->
<g id="node11" class="node">
<title>faccept</title>
<path fill="#f4f7fa" stroke="#40566f" d="M253.81,-1205.98C253.81,-1205.98 190.94,-1177.45 190.94,-1177.45 185.48,-1174.97 185.48,-1170 190.94,-1167.52 190.94,-1167.52 253.81,-1138.99 253.81,-1138.99 259.27,-1136.51 270.2,-1136.51 275.66,-1138.99 275.66,-1138.99 338.53,-1167.52 338.53,-1167.52 343.99,-1170 343.99,-1174.97 338.53,-1177.45 338.53,-1177.45 275.66,-1205.98 275.66,-1205.98 270.2,-1208.46 259.27,-1208.46 253.81,-1205.98"/>
<text text-anchor="middle" x="264.74" y="-1175.74" font-family="Helvetica,sans-Serif" font-size="10.00">Any accepted</text>
<text text-anchor="middle" x="264.74" y="-1162.99" font-family="Helvetica,sans-Serif" font-size="10.00">components?</text>
</g>
<!-- flike&#45;&gt;faccept -->
<g id="edge3" class="edge">
<title>flike&#45;&gt;faccept</title>
<path fill="none" stroke="#526777" d="M264.74,-1247.55C264.74,-1238.95 264.74,-1229.04 264.74,-1219.31"/>
<polygon fill="#526777" stroke="#526777" points="267.26,-1219.42 264.74,-1212.22 262.22,-1219.42 267.26,-1219.42"/>
</g>
<!-- fabort -->
<g id="node12" class="node">
<title>fabort</title>
<path fill="#f8dddd" stroke="#a15c5c" d="M247.97,-1086.78C247.97,-1086.78 117.5,-1086.78 117.5,-1086.78 111.5,-1086.78 105.5,-1080.78 105.5,-1074.78 105.5,-1074.78 105.5,-1062.78 105.5,-1062.78 105.5,-1056.78 111.5,-1050.78 117.5,-1050.78 117.5,-1050.78 247.97,-1050.78 247.97,-1050.78 253.97,-1050.78 259.97,-1056.78 259.97,-1062.78 259.97,-1062.78 259.97,-1074.78 259.97,-1074.78 259.97,-1080.78 253.97,-1086.78 247.97,-1086.78"/>
<text text-anchor="middle" x="182.74" y="-1065.65" font-family="Helvetica,sans-Serif" font-size="10.00">No GSF output for this track</text>
</g>
<!-- faccept&#45;&gt;fabort -->
<g id="edge4" class="edge">
<title>faccept&#45;&gt;fabort</title>
<path fill="none" stroke="#526777" d="M242.33,-1143.69C229.55,-1127.84 213.71,-1108.2 201.58,-1093.15"/>
<polygon fill="#526777" stroke="#526777" points="203.1,-1092.02 196.62,-1088 199.18,-1095.19 203.1,-1092.02"/>
<text text-anchor="middle" x="224.36" y="-1107.48" font-family="Helvetica,sans-Serif" font-size="9.00">no</text>
</g>
<!-- fnorm -->
<g id="node13" class="node">
<title>fnorm</title>
<path fill="#edf3f8" stroke="#40566f" d="M477.85,-1086.78C477.85,-1086.78 295.62,-1086.78 295.62,-1086.78 289.62,-1086.78 283.62,-1080.78 283.62,-1074.78 283.62,-1074.78 283.62,-1062.78 283.62,-1062.78 283.62,-1056.78 289.62,-1050.78 295.62,-1050.78 295.62,-1050.78 477.85,-1050.78 477.85,-1050.78 483.85,-1050.78 489.85,-1056.78 489.85,-1062.78 489.85,-1062.78 489.85,-1074.78 489.85,-1074.78 489.85,-1080.78 483.85,-1086.78 477.85,-1086.78"/>
<text text-anchor="middle" x="386.74" y="-1065.65" font-family="Helvetica,sans-Serif" font-size="10.00">Stable log&#45;space weight normalization</text>
</g>
<!-- faccept&#45;&gt;fnorm -->
<g id="edge5" class="edge">
<title>faccept&#45;&gt;fnorm</title>
<path fill="none" stroke="#526777" d="M293.96,-1147.12C313.93,-1130.47 340.21,-1108.56 359.7,-1092.31"/>
<polygon fill="#526777" stroke="#526777" points="360.86,-1093.8 364.77,-1087.25 357.63,-1089.93 360.86,-1093.8"/>
<text text-anchor="middle" x="351.24" y="-1107.48" font-family="Helvetica,sans-Serif" font-size="9.00">yes</text>
</g>
<!-- outgoing -->
<g id="node14" class="node">
<title>outgoing</title>
<path fill="#f4f7fa" stroke="#40566f" d="M375.54,-1009.46C375.54,-1009.46 298.21,-979.63 298.21,-979.63 292.61,-977.47 292.61,-973.16 298.21,-971 298.21,-971 375.54,-941.17 375.54,-941.17 381.14,-939.01 392.33,-939.01 397.93,-941.17 397.93,-941.17 475.26,-971 475.26,-971 480.86,-973.16 480.86,-977.47 475.26,-979.63 475.26,-979.63 397.93,-1009.46 397.93,-1009.46 392.33,-1011.62 381.14,-1011.62 375.54,-1009.46"/>
<text text-anchor="middle" x="386.74" y="-978.57" font-family="Helvetica,sans-Serif" font-size="10.00">Another outward</text>
<text text-anchor="middle" x="386.74" y="-965.82" font-family="Helvetica,sans-Serif" font-size="10.00">surface?</text>
</g>
<!-- fnorm&#45;&gt;outgoing -->
<g id="edge6" class="edge">
<title>fnorm&#45;&gt;outgoing</title>
<path fill="none" stroke="#526777" d="M386.74,-1050.57C386.74,-1042.49 386.74,-1032.42 386.74,-1022.34"/>
<polygon fill="#526777" stroke="#526777" points="389.26,-1022.48 386.74,-1015.28 384.22,-1022.49 389.26,-1022.48"/>
</g>
<!-- material -->
<g id="node15" class="node">
<title>material</title>
<path fill="#fff0d6" stroke="#b47a22" d="M222.47,-889.61C222.47,-889.61 95,-889.61 95,-889.61 89,-889.61 83,-883.61 83,-877.61 83,-877.61 83,-863.15 83,-863.15 83,-857.15 89,-851.15 95,-851.15 95,-851.15 222.47,-851.15 222.47,-851.15 228.47,-851.15 234.47,-857.15 234.47,-863.15 234.47,-863.15 234.47,-877.61 234.47,-877.61 234.47,-883.61 228.47,-889.61 222.47,-889.61"/>
<text text-anchor="middle" x="158.74" y="-873.63" font-family="Helvetica,sans-Serif" font-size="10.00">Current layer t/X0 estimate</text>
<text text-anchor="middle" x="158.74" y="-860.88" font-family="Helvetica,sans-Serif" font-size="10.00">post&#45;hit process ownership</text>
</g>
<!-- outgoing&#45;&gt;material -->
<g id="edge7" class="edge">
<title>outgoing&#45;&gt;material</title>
<path fill="none" stroke="#526777" d="M341.42,-953.85C302.66,-936.36 247.02,-911.24 207.35,-893.32"/>
<polygon fill="#526777" stroke="#526777" points="208.73,-890.73 201.13,-890.07 206.66,-895.32 208.73,-890.73"/>
<text text-anchor="middle" x="266.24" y="-910.31" font-family="Helvetica,sans-Serif" font-size="9.00">yes</text>
</g>
<!-- finalsurface -->
<g id="node21" class="node">
<title>finalsurface</title>
<path fill="#dff0e3" stroke="#4e7b5c" d="M510.72,-889.61C510.72,-889.61 270.75,-889.61 270.75,-889.61 264.75,-889.61 258.75,-883.61 258.75,-877.61 258.75,-877.61 258.75,-863.15 258.75,-863.15 258.75,-857.15 264.75,-851.15 270.75,-851.15 270.75,-851.15 510.72,-851.15 510.72,-851.15 516.72,-851.15 522.72,-857.15 522.72,-863.15 522.72,-863.15 522.72,-877.61 522.72,-877.61 522.72,-883.61 516.72,-889.61 510.72,-889.61"/>
<text text-anchor="middle" x="390.74" y="-873.63" font-family="Helvetica,sans-Serif" font-size="10.00">Final measurement surface:</text>
<text text-anchor="middle" x="390.74" y="-860.88" font-family="Helvetica,sans-Serif" font-size="10.00">preserve filtered mixture; no outgoing convolution</text>
</g>
<!-- outgoing&#45;&gt;finalsurface -->
<g id="edge16" class="edge">
<title>outgoing&#45;&gt;finalsurface</title>
<path fill="none" stroke="#526777" d="M388.18,-937.15C388.68,-924.14 389.24,-909.81 389.71,-897.85"/>
<polygon fill="#526777" stroke="#526777" points="392.25,-898.29 390.01,-891 387.21,-898.1 392.25,-898.29"/>
<text text-anchor="middle" x="394.36" y="-910.31" font-family="Helvetica,sans-Serif" font-size="9.00">no</text>
</g>
<!-- splitq -->
<g id="node16" class="node">
<title>splitq</title>
<path fill="#fff0d6" stroke="#b47a22" d="M207.19,-810.87C207.19,-810.87 94.56,-778.96 94.56,-778.96 88.79,-777.32 88.79,-774.05 94.56,-772.41 94.56,-772.41 207.19,-740.5 207.19,-740.5 212.96,-738.86 224.51,-738.86 230.28,-740.5 230.28,-740.5 342.91,-772.41 342.91,-772.41 348.68,-774.05 348.68,-777.32 342.91,-778.96 342.91,-778.96 230.28,-810.87 230.28,-810.87 224.51,-812.51 212.96,-812.51 207.19,-810.87"/>
<text text-anchor="middle" x="218.74" y="-778.94" font-family="Helvetica,sans-Serif" font-size="10.00">Electron hypothesis and</text>
<text text-anchor="middle" x="218.74" y="-766.19" font-family="Helvetica,sans-Serif" font-size="10.00">t/X0 &gt; split threshold?</text>
</g>
<!-- material&#45;&gt;splitq -->
<g id="edge8" class="edge">
<title>material&#45;&gt;splitq</title>
<path fill="none" stroke="#526777" d="M170.59,-851.06C177.22,-840.82 185.74,-827.66 193.76,-815.26"/>
<polygon fill="#526777" stroke="#526777" points="196.36,-816.89 198.16,-809.48 192.13,-814.15 196.36,-816.89"/>
</g>
<!-- split -->
<g id="node17" class="node">
<title>split</title>
<path fill="#fff0d6" stroke="#b47a22" d="M316.85,-673.1C316.85,-673.1 98.62,-673.1 98.62,-673.1 92.62,-673.1 86.63,-667.1 86.63,-661.1 86.63,-661.1 86.63,-633.89 86.63,-633.89 86.63,-627.89 92.63,-621.89 98.63,-621.89 98.63,-621.89 316.85,-621.89 316.85,-621.89 322.85,-621.89 328.85,-627.89 328.85,-633.89 328.85,-633.89 328.85,-661.1 328.85,-661.1 328.85,-667.1 322.85,-673.1 316.85,-673.1"/>
<text text-anchor="middle" x="207.74" y="-657.12" font-family="Helvetica,sans-Serif" font-size="10.00">Bethe–Heitler mixture convolution</text>
<text text-anchor="middle" x="207.74" y="-644.37" font-family="Helvetica,sans-Serif" font-size="10.00">create weighted momentum&#45;fraction children</text>
<text text-anchor="middle" x="207.74" y="-631.62" font-family="Helvetica,sans-Serif" font-size="10.00">filtered history stays at measurement surface</text>
</g>
<!-- splitq&#45;&gt;split -->
<g id="edge9" class="edge">
<title>splitq&#45;&gt;split</title>
<path fill="none" stroke="#526777" d="M215.52,-737.85C213.98,-720.09 212.13,-698.96 210.63,-681.71"/>
<polygon fill="#526777" stroke="#526777" points="213.06,-681.53 209.92,-674.58 208.04,-681.97 213.06,-681.53"/>
<text text-anchor="middle" x="221.24" y="-710.68" font-family="Helvetica,sans-Serif" font-size="9.00">yes</text>
</g>
<!-- cutoff -->
<g id="node18" class="node">
<title>cutoff</title>
<path fill="#edf3f8" stroke="#40566f" d="M391.35,-577.28C391.35,-577.28 194.12,-577.28 194.12,-577.28 188.12,-577.28 182.12,-571.28 182.12,-565.28 182.12,-565.28 182.12,-553.28 182.12,-553.28 182.12,-547.28 188.12,-541.28 194.12,-541.28 194.12,-541.28 391.35,-541.28 391.35,-541.28 397.35,-541.28 403.35,-547.28 403.35,-553.28 403.35,-553.28 403.35,-565.28 403.35,-565.28 403.35,-571.28 397.35,-577.28 391.35,-577.28"/>
<text text-anchor="middle" x="292.74" y="-556.16" font-family="Helvetica,sans-Serif" font-size="10.00">Remove components below weight cutoff</text>
</g>
<!-- splitq&#45;&gt;cutoff -->
<g id="edge10" class="edge">
<title>splitq&#45;&gt;cutoff</title>
<path fill="none" stroke="#526777" d="M277.89,-753.56C301.86,-741.73 327.08,-724.35 340.74,-699.98 357.7,-669.7 352.01,-654.71 340.74,-621.89 335.87,-607.74 326.29,-594.34 316.95,-583.68"/>
<polygon fill="#526777" stroke="#526777" points="319.23,-582.35 312.52,-578.73 315.51,-585.75 319.23,-582.35"/>
<text text-anchor="middle" x="356.36" y="-644.57" font-family="Helvetica,sans-Serif" font-size="9.00">no</text>
</g>
<!-- split&#45;&gt;cutoff -->
<g id="edge11" class="edge">
<title>split&#45;&gt;cutoff</title>
<path fill="none" stroke="#526777" d="M232.32,-621.56C244.2,-609.51 258.37,-595.14 270,-583.34"/>
<polygon fill="#526777" stroke="#526777" points="271.22,-585.68 274.48,-578.78 267.63,-582.14 271.22,-585.68"/>
</g>
<!-- reduceq -->
<g id="node19" class="node">
<title>reduceq</title>
<path fill="#f4f7fa" stroke="#40566f" d="M281.4,-482.5C281.4,-482.5 193.1,-451.9 193.1,-451.9 187.43,-449.93 187.43,-446.01 193.1,-444.04 193.1,-444.04 281.4,-413.44 281.4,-413.44 287.07,-411.47 298.4,-411.47 304.07,-413.44 304.07,-413.44 392.37,-444.04 392.37,-444.04 398.04,-446.01 398.04,-449.93 392.37,-451.9 392.37,-451.9 304.07,-482.5 304.07,-482.5 298.4,-484.47 287.07,-484.47 281.4,-482.5"/>
<text text-anchor="middle" x="292.74" y="-451.22" font-family="Helvetica,sans-Serif" font-size="10.00">Mixture exceeds</text>
<text text-anchor="middle" x="292.74" y="-438.47" font-family="Helvetica,sans-Serif" font-size="10.00">component target?</text>
</g>
<!-- cutoff&#45;&gt;reduceq -->
<g id="edge12" class="edge">
<title>cutoff&#45;&gt;reduceq</title>
<path fill="none" stroke="#526777" d="M292.74,-541.2C292.74,-528.72 292.74,-511.16 292.74,-494.7"/>
<polygon fill="#526777" stroke="#526777" points="295.26,-494.94 292.74,-487.74 290.22,-494.94 295.26,-494.94"/>
</g>
<!-- reduceq&#45;&gt;fbegin -->
<g id="edge14" class="edge">
<title>reduceq&#45;&gt;fbegin</title>
<path fill="none" stroke="#526777" d="M201.88,-455.47C135.75,-465.74 57.73,-491.91 57.73,-558.28 57.73,-833.15 57.73,-833.15 57.73,-833.15 57.73,-922.01 80.73,-942.91 80.73,-1031.78 80.73,-1362.76 80.73,-1362.76 80.73,-1362.76 80.73,-1402.51 117.47,-1422.46 158.1,-1432.38"/>
<polygon fill="#526777" stroke="#526777" points="157.42,-1435.04 165,-1434.17 158.54,-1430.12 157.42,-1435.04"/>
<text text-anchor="middle" x="107.48" y="-972.39" font-family="Helvetica,sans-Serif" font-size="9.00">no / next hit</text>
</g>
<!-- reduce -->
<g id="node20" class="node">
<title>reduce</title>
<path fill="#edf3f8" stroke="#40566f" d="M463.22,-362.16C463.22,-362.16 280.25,-362.16 280.25,-362.16 274.25,-362.16 268.25,-356.16 268.25,-350.16 268.25,-350.16 268.25,-322.94 268.25,-322.94 268.25,-316.94 274.25,-310.94 280.25,-310.94 280.25,-310.94 463.22,-310.94 463.22,-310.94 469.22,-310.94 475.22,-316.94 475.22,-322.94 475.22,-322.94 475.22,-350.16 475.22,-350.16 475.22,-356.16 469.22,-362.16 463.22,-362.16"/>
<text text-anchor="middle" x="371.74" y="-346.18" font-family="Helvetica,sans-Serif" font-size="10.00">Current&#45;surface mixture reduction</text>
<text text-anchor="middle" x="371.74" y="-333.43" font-family="Helvetica,sans-Serif" font-size="10.00">KL moment merge</text>
<text text-anchor="middle" x="371.74" y="-320.68" font-family="Helvetica,sans-Serif" font-size="10.00">then renormalize</text>
</g>
<!-- reduceq&#45;&gt;reduce -->
<g id="edge13" class="edge">
<title>reduceq&#45;&gt;reduce</title>
<path fill="none" stroke="#526777" d="M314.53,-416.78C325.32,-401.84 338.33,-383.81 349.22,-368.74"/>
<polygon fill="#526777" stroke="#526777" points="351.57,-370.78 353.74,-363.47 347.48,-367.83 351.57,-370.78"/>
<text text-anchor="middle" x="346.24" y="-382.96" font-family="Helvetica,sans-Serif" font-size="9.00">yes</text>
</g>
<!-- reduce&#45;&gt;fbegin -->
<g id="edge15" class="edge">
<title>reduce&#45;&gt;fbegin</title>
<path fill="none" stroke="#526777" d="M472.33,-362.59C511.75,-378.97 547.74,-405.32 547.74,-446.97 547.74,-833.15 547.74,-833.15 547.74,-833.15 547.74,-956.8 514.74,-985.75 514.74,-1109.4 514.74,-1362.76 514.74,-1362.76 514.74,-1362.76 514.74,-1396.79 429.42,-1417.95 358.46,-1429.66"/>
<polygon fill="#526777" stroke="#526777" points="358.48,-1427.26 351.77,-1430.9 359.28,-1432.24 358.48,-1427.26"/>
<text text-anchor="middle" x="560.36" y="-910.31" font-family="Helvetica,sans-Serif" font-size="9.00">next hit</text>
</g>
<!-- reverseq -->
<g id="node22" class="node">
<title>reverseq</title>
<path fill="#eee4fa" stroke="#76569b" d="M809.92,-799.31C809.92,-799.31 688.08,-777.77 688.08,-777.77 682.17,-776.73 682.17,-774.64 688.08,-773.6 688.08,-773.6 809.92,-752.06 809.92,-752.06 815.83,-751.02 827.64,-751.02 833.55,-752.06 833.55,-752.06 955.39,-773.6 955.39,-773.6 961.3,-774.64 961.3,-776.73 955.39,-777.77 955.39,-777.77 833.55,-799.31 833.55,-799.31 827.64,-800.35 815.83,-800.35 809.92,-799.31"/>
<text text-anchor="middle" x="821.74" y="-772.56" font-family="Helvetica,sans-Serif" font-size="10.00">ReverseFiltering enabled?</text>
</g>
<!-- finalsurface&#45;&gt;reverseq -->
<g id="edge29" class="edge">
<title>finalsurface&#45;&gt;reverseq</title>
<path fill="none" stroke="#526777" d="M477.69,-850.67C557.65,-833.48 674.8,-808.28 749.66,-792.18"/>
<polygon fill="#526777" stroke="#526777" points="750.17,-794.44 756.68,-790.46 749.11,-789.51 750.17,-794.44"/>
</g>
<!-- rinit -->
<g id="node23" class="node">
<title>rinit</title>
<path fill="#eee4fa" stroke="#76569b" d="M904.22,-666.73C904.22,-666.73 739.25,-666.73 739.25,-666.73 733.25,-666.73 727.25,-660.73 727.25,-654.73 727.25,-654.73 727.25,-640.26 727.25,-640.26 727.25,-634.26 733.25,-628.26 739.25,-628.26 739.25,-628.26 904.22,-628.26 904.22,-628.26 910.22,-628.26 916.22,-634.26 916.22,-640.26 916.22,-640.26 916.22,-654.73 916.22,-654.73 916.22,-660.73 910.22,-666.73 904.22,-666.73"/>
<text text-anchor="middle" x="821.74" y="-650.75" font-family="Helvetica,sans-Serif" font-size="10.00">Clone final&#45;surface filtered mixture</text>
<text text-anchor="middle" x="821.74" y="-638" font-family="Helvetica,sans-Serif" font-size="10.00">as reverse starting components</text>
</g>
<!-- reverseq&#45;&gt;rinit -->
<g id="edge30" class="edge">
<title>reverseq&#45;&gt;rinit</title>
<path fill="none" stroke="#526777" d="M821.74,-749.75C821.74,-728.23 821.74,-697.2 821.74,-675.18"/>
<polygon fill="#526777" stroke="#526777" points="824.26,-675.42 821.74,-668.22 819.22,-675.42 824.26,-675.42"/>
<text text-anchor="middle" x="829.24" y="-710.68" font-family="Helvetica,sans-Serif" font-size="9.00">yes</text>
</g>
<!-- forwardout -->
<g id="node28" class="node">
<title>forwardout</title>
<path fill="#edf3f8" stroke="#40566f" d="M1235.97,-263.59C1235.97,-263.59 991.5,-263.59 991.5,-263.59 985.5,-263.59 979.5,-257.59 979.5,-251.59 979.5,-251.59 979.5,-224.38 979.5,-224.38 979.5,-218.38 985.5,-212.38 991.5,-212.38 991.5,-212.38 1235.97,-212.38 1235.97,-212.38 1241.97,-212.38 1247.97,-218.38 1247.97,-224.38 1247.97,-224.38 1247.97,-251.59 1247.97,-251.59 1247.97,-257.59 1241.97,-263.59 1235.97,-263.59"/>
<text text-anchor="middle" x="1113.73" y="-247.61" font-family="Helvetica,sans-Serif" font-size="10.00">Forward fallback:</text>
<text text-anchor="middle" x="1113.73" y="-234.86" font-family="Helvetica,sans-Serif" font-size="10.00">smooth components; BestBranch or WeightedMean</text>
<text text-anchor="middle" x="1113.73" y="-222.11" font-family="Helvetica,sans-Serif" font-size="10.00">extrapolate selected state to IP</text>
</g>
<!-- reverseq&#45;&gt;forwardout -->
<g id="edge31" class="edge">
<title>reverseq&#45;&gt;forwardout</title>
<path fill="none" stroke="#526777" d="M905.96,-764.48C974.08,-750.96 1058.73,-719.82 1058.73,-648.5 1058.73,-648.5 1058.73,-648.5 1058.73,-335.55 1058.73,-311.49 1071.78,-287.96 1085.17,-270.15"/>
<polygon fill="#526777" stroke="#526777" points="1087.64,-272.08 1090.09,-264.86 1083.67,-268.98 1087.64,-272.08"/>
<text text-anchor="middle" x="1064.36" y="-507.13" font-family="Helvetica,sans-Serif" font-size="9.00">no</text>
</g>
<!-- rupdate -->
<g id="node24" class="node">
<title>rupdate</title>
<path fill="#eee4fa" stroke="#76569b" d="M928.6,-584.89C928.6,-584.89 714.88,-584.89 714.88,-584.89 708.88,-584.89 702.88,-578.89 702.88,-572.89 702.88,-572.89 702.88,-545.68 702.88,-545.68 702.88,-539.68 708.88,-533.68 714.88,-533.68 714.88,-533.68 928.6,-533.68 928.6,-533.68 934.6,-533.68 940.6,-539.68 940.6,-545.68 940.6,-545.68 940.6,-572.89 940.6,-572.89 940.6,-578.89 934.6,-584.89 928.6,-584.89"/>
<text text-anchor="middle" x="821.74" y="-568.91" font-family="Helvetica,sans-Serif" font-size="10.00">At next inward hit, for every component:</text>
<text text-anchor="middle" x="821.74" y="-556.16" font-family="Helvetica,sans-Serif" font-size="10.00">backward MarlinTrk initialise → addAndFit</text>
<text text-anchor="middle" x="821.74" y="-543.41" font-family="Helvetica,sans-Serif" font-size="10.00">exact likelihood and log&#45;space normalization</text>
</g>
<!-- rinit&#45;&gt;rupdate -->
<g id="edge17" class="edge">
<title>rinit&#45;&gt;rupdate</title>
<path fill="none" stroke="#526777" d="M821.74,-627.79C821.74,-617.65 821.74,-604.82 821.74,-593.08"/>
<polygon fill="#526777" stroke="#526777" points="824.26,-593.37 821.74,-586.17 819.22,-593.37 824.26,-593.37"/>
</g>
<!-- rmaterial -->
<g id="node25" class="node">
<title>rmaterial</title>
<path fill="#fff0d6" stroke="#b47a22" d="M853.47,-473.57C853.47,-473.57 654,-473.57 654,-473.57 648,-473.57 642,-467.57 642,-461.57 642,-461.57 642,-434.36 642,-434.36 642,-428.36 648,-422.36 654,-422.36 654,-422.36 853.47,-422.36 853.47,-422.36 859.47,-422.36 865.47,-428.36 865.47,-434.36 865.47,-434.36 865.47,-461.57 865.47,-461.57 865.47,-467.57 859.47,-473.57 853.47,-473.57"/>
<text text-anchor="middle" x="753.74" y="-457.59" font-family="Helvetica,sans-Serif" font-size="10.00">Direction&#45;reversed BH convolution</text>
<text text-anchor="middle" x="753.74" y="-444.84" font-family="Helvetica,sans-Serif" font-size="10.00">p_previous = p_current / z</text>
<text text-anchor="middle" x="753.74" y="-432.09" font-family="Helvetica,sans-Serif" font-size="10.00">then cutoff + current&#45;surface KL reduction</text>
</g>
<!-- rupdate&#45;&gt;rmaterial -->
<g id="edge18" class="edge">
<title>rupdate&#45;&gt;rmaterial</title>
<path fill="none" stroke="#526777" d="M806.13,-533.21C796.46,-517.65 783.94,-497.53 773.56,-480.85"/>
<polygon fill="#526777" stroke="#526777" points="775.21,-479.71 769.26,-474.93 770.93,-482.38 775.21,-479.71"/>
</g>
<!-- rmore -->
<g id="node26" class="node">
<title>rmore</title>
<path fill="#f4f7fa" stroke="#40566f" d="M833.07,-359.42C833.07,-359.42 750.68,-339.39 750.68,-339.39 744.85,-337.97 744.85,-335.13 750.68,-333.71 750.68,-333.71 833.07,-313.68 833.07,-313.68 838.9,-312.26 850.57,-312.26 856.4,-313.68 856.4,-313.68 938.79,-333.71 938.79,-333.71 944.62,-335.13 944.62,-337.97 938.79,-339.39 938.79,-339.39 856.4,-359.42 856.4,-359.42 850.57,-360.84 838.9,-360.84 833.07,-359.42"/>
<text text-anchor="middle" x="844.74" y="-333.43" font-family="Helvetica,sans-Serif" font-size="10.00">More inward hits?</text>
</g>
<!-- rmaterial&#45;&gt;rmore -->
<g id="edge19" class="edge">
<title>rmaterial&#45;&gt;rmore</title>
<path fill="none" stroke="#526777" d="M774.61,-421.87C788.82,-404.78 807.61,-382.19 822.16,-364.69"/>
<polygon fill="#526777" stroke="#526777" points="824.65,-366.64 827.32,-359.49 820.78,-363.42 824.65,-366.64"/>
</g>
<!-- rmore&#45;&gt;rupdate -->
<g id="edge20" class="edge">
<title>rmore&#45;&gt;rupdate</title>
<path fill="none" stroke="#526777" d="M857.74,-359.37C865.21,-373.21 873.86,-391.79 877.74,-409.51 885.03,-442.91 888.85,-454.1 877.74,-486.43 872.61,-501.33 863,-515.52 853.16,-527.29"/>
<polygon fill="#526777" stroke="#526777" points="850.83,-525.13 848.02,-532.22 854.64,-528.43 850.83,-525.13"/>
<text text-anchor="middle" x="891.24" y="-445.04" font-family="Helvetica,sans-Serif" font-size="9.00">yes</text>
</g>
<!-- rbest -->
<g id="node27" class="node">
<title>rbest</title>
<path fill="#eee4fa" stroke="#76569b" d="M943.72,-257.22C943.72,-257.22 745.75,-257.22 745.75,-257.22 739.75,-257.22 733.75,-251.22 733.75,-245.22 733.75,-245.22 733.75,-230.76 733.75,-230.76 733.75,-224.76 739.75,-218.76 745.75,-218.76 745.75,-218.76 943.72,-218.76 943.72,-218.76 949.72,-218.76 955.72,-224.76 955.72,-230.76 955.72,-230.76 955.72,-245.22 955.72,-245.22 955.72,-251.22 949.72,-257.22 943.72,-257.22"/>
<text text-anchor="middle" x="844.74" y="-241.24" font-family="Helvetica,sans-Serif" font-size="10.00">Select highest&#45;weight reverse component</text>
<text text-anchor="middle" x="844.74" y="-228.49" font-family="Helvetica,sans-Serif" font-size="10.00">extrapolate continuation state to IP</text>
</g>
<!-- rmore&#45;&gt;rbest -->
<g id="edge21" class="edge">
<title>rmore&#45;&gt;rbest</title>
<path fill="none" stroke="#526777" d="M844.74,-310.43C844.74,-296.6 844.74,-279.45 844.74,-265.42"/>
<polygon fill="#526777" stroke="#526777" points="847.26,-265.77 844.74,-258.57 842.22,-265.77 847.26,-265.77"/>
<text text-anchor="middle" x="850.36" y="-284.29" font-family="Helvetica,sans-Serif" font-size="9.00">no</text>
</g>
<!-- choose -->
<g id="node29" class="node">
<title>choose</title>
<path fill="#f4f7fa" stroke="#40566f" d="M967.58,-170.95C967.58,-170.95 893.17,-141.35 893.17,-141.35 887.59,-139.14 887.59,-134.7 893.17,-132.49 893.17,-132.49 967.58,-102.89 967.58,-102.89 973.16,-100.68 984.31,-100.68 989.89,-102.89 989.89,-102.89 1064.3,-132.49 1064.3,-132.49 1069.88,-134.7 1069.88,-139.14 1064.3,-141.35 1064.3,-141.35 989.89,-170.95 989.89,-170.95 984.31,-173.16 973.16,-173.16 967.58,-170.95"/>
<text text-anchor="middle" x="978.74" y="-140.17" font-family="Helvetica,sans-Serif" font-size="10.00">Valid reverse IP</text>
<text text-anchor="middle" x="978.74" y="-127.42" font-family="Helvetica,sans-Serif" font-size="10.00">state available?</text>
</g>
<!-- rbest&#45;&gt;choose -->
<g id="edge32" class="edge">
<title>rbest&#45;&gt;choose</title>
<path fill="none" stroke="#526777" d="M869.94,-218.35C889.4,-203.97 916.69,-183.79 939.07,-167.25"/>
<polygon fill="#526777" stroke="#526777" points="940.25,-168.77 944.54,-162.46 937.25,-164.72 940.25,-168.77"/>
</g>
<!-- forwardout&#45;&gt;choose -->
<g id="edge33" class="edge">
<title>forwardout&#45;&gt;choose</title>
<path fill="none" stroke="#526777" d="M1079.67,-211.99C1061,-198.29 1037.77,-181.24 1018.3,-166.96"/>
<polygon fill="#526777" stroke="#526777" points="1020.15,-164.45 1012.86,-162.23 1017.17,-168.52 1020.15,-164.45"/>
</g>
<!-- write -->
<g id="node30" class="node">
<title>write</title>
<path fill="#dceafa" stroke="#40566f" stroke-width="1.3" d="M1073.6,-51.21C1073.6,-51.21 883.88,-51.21 883.88,-51.21 877.88,-51.21 871.88,-45.21 871.88,-39.21 871.88,-39.21 871.88,-12 871.88,-12 871.88,-6 877.88,0 883.88,0 883.88,0 1073.6,0 1073.6,0 1079.6,0 1085.6,-6 1085.6,-12 1085.6,-12 1085.6,-39.21 1085.6,-39.21 1085.6,-45.21 1079.6,-51.21 1073.6,-51.21"/>
<text text-anchor="middle" x="978.74" y="-35.23" font-family="Helvetica,sans-Serif" font-size="10.00">Write GSFTracks</text>
<text text-anchor="middle" x="978.74" y="-22.48" font-family="Helvetica,sans-Serif" font-size="10.00">AtIP parameters + covariance</text>
<text text-anchor="middle" x="978.74" y="-9.73" font-family="Helvetica,sans-Serif" font-size="10.00">matching χ²/NDF + original hit relations</text>
</g>
<!-- choose&#45;&gt;write -->
<g id="edge34" class="edge">
<title>choose&#45;&gt;write</title>
<path fill="none" stroke="#526777" d="M933.96,-115.82C914.23,-103.92 897.6,-87.58 907.99,-69.21 910.59,-64.6 913.92,-60.43 917.71,-56.67"/>
<polygon fill="#526777" stroke="#526777" points="918.86,-59.13 922.55,-52.46 915.5,-55.37 918.86,-59.13"/>
<text text-anchor="middle" x="963.61" y="-71.91" font-family="Helvetica,sans-Serif" font-size="9.00">yes: reverse best branch</text>
</g>
<!-- choose&#45;&gt;write -->
<g id="edge35" class="edge">
<title>choose&#45;&gt;write</title>
<path fill="none" stroke="#526777" d="M1005.5,-108.72C1012.1,-100.33 1018.26,-90.6 1021.74,-80.46 1024.49,-72.4 1022.39,-64.66 1017.92,-57.68"/>
<polygon fill="#526777" stroke="#526777" points="1019.58,-56.7 1013.22,-52.5 1015.57,-59.75 1019.58,-56.7"/>
<text text-anchor="middle" x="1065.48" y="-71.91" font-family="Helvetica,sans-Serif" font-size="9.00">no: forward output</text>
</g>
<!-- lworkflow -->
<g id="node31" class="node">
<title>lworkflow</title>
<path fill="#dff0e3" stroke="#4e7b5c" d="M719.6,-1958.71C719.6,-1958.71 577.88,-1958.71 577.88,-1958.71 571.88,-1958.71 565.88,-1952.71 565.88,-1946.71 565.88,-1946.71 565.88,-1934.71 565.88,-1934.71 565.88,-1928.71 571.88,-1922.71 577.88,-1922.71 577.88,-1922.71 719.6,-1922.71 719.6,-1922.71 725.6,-1922.71 731.6,-1928.71 731.6,-1934.71 731.6,-1934.71 731.6,-1946.71 731.6,-1946.71 731.6,-1952.71 725.6,-1958.71 719.6,-1958.71"/>
<text text-anchor="middle" x="648.74" y="-1937.59" font-family="Helvetica,sans-Serif" font-size="10.00">Operational tracking workflow</text>
</g>
<!-- lphysics -->
<g id="node32" class="node">
<title>lphysics</title>
<path fill="#fff0d6" stroke="#b47a22" d="M737.97,-1878C737.97,-1878 559.5,-1878 559.5,-1878 553.5,-1878 547.5,-1872 547.5,-1866 547.5,-1866 547.5,-1851.54 547.5,-1851.54 547.5,-1845.54 553.5,-1839.54 559.5,-1839.54 559.5,-1839.54 737.97,-1839.54 737.97,-1839.54 743.97,-1839.54 749.97,-1845.54 749.97,-1851.54 749.97,-1851.54 749.97,-1866 749.97,-1866 749.97,-1872 743.97,-1878 737.97,-1878"/>
<text text-anchor="middle" x="648.74" y="-1862.02" font-family="Helvetica,sans-Serif" font-size="10.00">Provisional CEPC material/BH physics</text>
<text text-anchor="middle" x="648.74" y="-1849.27" font-family="Helvetica,sans-Serif" font-size="10.00">not yet broadly validated</text>
</g>
<!-- lworkflow&#45;&gt;lphysics -->
<!-- lreverse -->
<g id="node33" class="node">
<title>lreverse</title>
<path fill="#eee4fa" stroke="#76569b" d="M704.6,-1784.58C704.6,-1784.58 592.88,-1784.58 592.88,-1784.58 586.88,-1784.58 580.88,-1778.58 580.88,-1772.58 580.88,-1772.58 580.88,-1760.58 580.88,-1760.58 580.88,-1754.58 586.88,-1748.58 592.88,-1748.58 592.88,-1748.58 704.6,-1748.58 704.6,-1748.58 710.6,-1748.58 716.6,-1754.58 716.6,-1760.58 716.6,-1760.58 716.6,-1772.58 716.6,-1772.58 716.6,-1778.58 710.6,-1784.58 704.6,-1784.58"/>
<text text-anchor="middle" x="648.74" y="-1763.46" font-family="Helvetica,sans-Serif" font-size="10.00">Opt&#45;in reverse workflow</text>
</g>
<!-- lphysics&#45;&gt;lreverse -->
</g>
</svg>
